<svg width="132" height="132" viewBox="0 0 132 132" fill="none" xmlns="http://www.w3.org/2000/svg">
<rect x="38" y="13" width="56" height="56" rx="12" fill="#FFD700"/>
<g filter="url(#filter0_d_127_1901)">
<rect x="38" y="13" width="56" height="56" rx="12" fill="white" fill-opacity="0.01" shape-rendering="crispEdges"/>
</g>
<path d="M56 45.375C54.9583 45.375 54.0729 45.0104 53.3438 44.2812C52.6146 43.5521 52.25 42.6667 52.25 41.625C52.25 40.5833 52.6146 39.6979 53.3438 38.9688C54.0729 38.2396 54.9583 37.875 56 37.875V35.375C56 34.6875 56.2448 34.099 56.7344 33.6094C57.224 33.1198 57.8125 32.875 58.5 32.875H62.25C62.25 31.8333 62.6146 30.9479 63.3438 30.2188C64.0729 29.4896 64.9583 29.125 66 29.125C67.0417 29.125 67.9271 29.4896 68.6562 30.2188C69.3854 30.9479 69.75 31.8333 69.75 32.875H73.5C74.1875 32.875 74.776 33.1198 75.2656 33.6094C75.7552 34.099 76 34.6875 76 35.375V37.875C77.0417 37.875 77.9271 38.2396 78.6562 38.9688C79.3854 39.6979 79.75 40.5833 79.75 41.625C79.75 42.6667 79.3854 43.5521 78.6562 44.2812C77.9271 45.0104 77.0417 45.375 76 45.375V50.375C76 51.0625 75.7552 51.651 75.2656 52.1406C74.776 52.6302 74.1875 52.875 73.5 52.875H58.5C57.8125 52.875 57.224 52.6302 56.7344 52.1406C56.2448 51.651 56 51.0625 56 50.375V45.375ZM62.25 42.875C62.7708 42.875 63.2135 42.6927 63.5781 42.3281C63.9427 41.9635 64.125 41.5208 64.125 41C64.125 40.4792 63.9427 40.0365 63.5781 39.6719C63.2135 39.3073 62.7708 39.125 62.25 39.125C61.7292 39.125 61.2865 39.3073 60.9219 39.6719C60.5573 40.0365 60.375 40.4792 60.375 41C60.375 41.5208 60.5573 41.9635 60.9219 42.3281C61.2865 42.6927 61.7292 42.875 62.25 42.875ZM69.75 42.875C70.2708 42.875 70.7135 42.6927 71.0781 42.3281C71.4427 41.9635 71.625 41.5208 71.625 41C71.625 40.4792 71.4427 40.0365 71.0781 39.6719C70.7135 39.3073 70.2708 39.125 69.75 39.125C69.2292 39.125 68.7865 39.3073 68.4219 39.6719C68.0573 40.0365 67.875 40.4792 67.875 41C67.875 41.5208 68.0573 41.9635 68.4219 42.3281C68.7865 42.6927 69.2292 42.875 69.75 42.875ZM61 47.875H71V45.375H61V47.875ZM58.5 50.375H73.5V35.375H58.5V50.375Z" fill="#001F4D"/>
<defs>
<filter id="filter0_d_127_1901" x="0" y="0" width="132" height="132" filterUnits="userSpaceOnUse" color-interpolation-filters="sRGB">
<feFlood flood-opacity="0" result="BackgroundImageFix"/>
<feColorMatrix in="SourceAlpha" type="matrix" values="0 0 0 0 0 0 0 0 0 0 0 0 0 0 0 0 0 0 127 0" result="hardAlpha"/>
<feMorphology radius="12" operator="erode" in="SourceAlpha" result="effect1_dropShadow_127_1901"/>
<feOffset dy="25"/>
<feGaussianBlur stdDeviation="25"/>
<feComposite in2="hardAlpha" operator="out"/>
<feColorMatrix type="matrix" values="0 0 0 0 0 0 0 0 0 0 0 0 0 0 0 0 0 0 0.25 0"/>
<feBlend mode="normal" in2="BackgroundImageFix" result="effect1_dropShadow_127_1901"/>
<feBlend mode="normal" in="SourceGraphic" in2="effect1_dropShadow_127_1901" result="shape"/>
</filter>
</defs>
</svg>
