<svg width="69" height="76" viewBox="0 0 69 76" fill="none" xmlns="http://www.w3.org/2000/svg">
<rect y="7" width="69" height="69" fill="#FFD700"/>
<path d="M36.68 56.608V48.256C36.68 42.624 38.056 38.016 40.808 34.432C43.56 30.784 47.624 28.416 53 27.328V34.528C50.76 35.04 48.904 36 47.432 37.408C46.024 38.752 45.096 40.352 44.648 42.208H51.08V56.608H36.68ZM15.56 56.608V48.256C15.56 42.624 16.936 38.016 19.688 34.432C22.44 30.784 26.504 28.416 31.88 27.328V34.528C29.64 35.04 27.784 36 26.312 37.408C24.904 38.752 23.976 40.352 23.528 42.208H29.96V56.608H15.56Z" fill="#195796"/>
</svg>
